{"title":"A Turtles Tale 2 Sammys Escape 2012 English Spanish DVD-R (RLG)","uid":9333714,"size":4419954688,"categoryP":"video","categoryS":"movies_dvdr","magnet":"?xt=urn:btih:b783fa0a8d782c4e5235440ee791346ed6d4b7c6&amp;dn=A+Turtles+Tale+2+Sammys+Escape+2012+English+Spanish+DVD-R+%28RLG%29&amp;tr=udp%3A%2F%2Ftracker.openbittorrent.com%3A80&amp;tr=udp%3A%2F%2Fopen.demonii.com%3A1337&amp;tr=udp%3A%2F%2Ftracker.coppersurfer.tk%3A6969&amp;tr=udp%3A%2F%2Fexodus.desync.com%3A6969","seeders":1,"leechers":0,"uploader":"RedLegsGreaves","files":-1,"time":1386814594,"description":" &lt;a href=&quot;http://www.imdb.com/title/tt2288005/&quot; rel=&quot;nofollow&quot; target=&quot;_NEW&quot;&gt;http://www.imdb.com/title/tt2288005/&lt;/a&gt;\nSammy and Ray, leatherback turtles and friends forever, are enjoying an atoll's water and sand, shepherding new hatchlings Ricky and Ella out to sea. Suddenly, a poacher swoops in and ships them off to be part of a spectacular aquarium show for tourists in Dubai. The kingpin of the place, Big D the seahorse, enlists them in his plans for a great escape. But with their new friends Jimbo the bug-eyed blob fish and Lulu the snippy lobster, Annabel the sweet Octopus, and a whole family of penguins, Sammy and Ray hatch breakout plans of their own. That is when little Ricky and Ella arrive, determined to break in to rescue them. After a series of thrilling adventures and narrow escapes, our heroes head south to meet up with Shelly, Sammy's first and only love.\n\nLanguages: English , Spanish\n\nFor Newer Users.\nSimply Drag downloaded folder to your Media Player. This is a NTSC DVD.\nThis is ripped so you would have best quality, menu, bonus/special feature, language options etc.\nNote:DVDs may not have have all* featues.\n\n\n\nVideo\nID : 224 (0xE0)\nFormat : MPEG Video\nFormat version : Version 2\nFormat profile : Main@Main\nFormat settings, BVOP : Yes\nFormat settings, Matrix : Custom\nFormat settings, GOP : Variable\nDuration : 23mn 39s\nBit rate mode : Variable\nBit rate : 5 032 Kbps\nMaximum bit rate : 9 800 Kbps\nWidth : 720 pixels\nHeight : 480 pixels\nDisplay aspect ratio : 16:9\nFrame rate : 23.976 fps\nStandard : NTSC\nColor space : YUV\nChroma subsampling : 4:2:0\nBit depth : 8 bits\nScan type : Progressive\nScan order : 2:3 Pulldown\nCompression mode : Lossy\nBits/(Pixel*Frame) : 0.607\nTime code of first frame : 10:22:19:25\nTime code source : Group of pictures header\nStream size : 852 MiB (83%)\n\nAudio \nID : 189 (0xBD)-128 (0x80)\nFormat : AC-3\nFormat/Info : Audio Coding 3\nMode extension : CM (complete main)\nFormat settings, Endianness : Big\nMuxing mode : DVD-Video\nDuration : 23mn 40s\nBit rate mode : Constant\nBit rate : 448 Kbps\nChannel count : 6 channels\nChannel positions : Front: L C R, Side: L R, LFE\nSampling rate : 48.0 KHz\nBit depth : 16 bits\nCompression mode : Lossy\nDelay relative to video : -561ms\nStream size : 75.8 MiB (7%) ","torrent":{"xt":"urn:btih:b783fa0a8d782c4e5235440ee791346ed6d4b7c6","amp;dn":"A+Turtles+Tale+2+Sammys+Escape+2012+English+Spanish+DVD-R+%28RLG%29","amp;tr":["udp%3A%2F%2Ftracker.openbittorrent.com%3A80","udp%3A%2F%2Fopen.demonii.com%3A1337","udp%3A%2F%2Ftracker.coppersurfer.tk%3A6969","udp%3A%2F%2Fexodus.desync.com%3A6969"],"infoHash":"b783fa0a8d782c4e5235440ee791346ed6d4b7c6","infoHashBuffer":{"type":"Buffer","data":[183,131,250,10,141,120,44,78,82,53,68,14,231,145,52,110,214,212,183,198]},"announce":[],"urlList":[]}}